<mxfile host="app.diagrams.net" modified="2023-09-14T16:54:43.789Z" agent="Mozilla/5.0 (Windows NT 10.0; Win64; x64) AppleWebKit/537.36 (KHTML, like Gecko) Chrome/116.0.0.0 Safari/537.36" version="21.7.5" etag="wd5-W4vYRfgCV97Jen4G" type="github">
  <diagram name="PÃ¡gina-1" id="Qki0P9583uawjs1bTobq">
    <mxGraphModel>
      <root>
        <mxCell id="0" />
        <mxCell id="1" parent="0" />
      </root>
    </mxGraphModel>
  </diagram>
</mxfile>
